<svg id="Group_9" data-name="Group 9" xmlns="http://www.w3.org/2000/svg" xmlns:xlink="http://www.w3.org/1999/xlink" viewBox="31.312 732.547 261.512 171.272">
  <defs>
    <style>
      .cls-1 {
        fill: #b0bcd0;
      }

      .cls-1, .cls-2 {
        opacity: 0.8;
      }

      .cls-2 {
        fill: #a7b3c6;
      }

      .cls-3 {
        fill: none;
        stroke: #77869f;
        stroke-width: 5px;
      }

      .cls-4 {
        filter: url(#Line_8);
      }

      .cls-5 {
        filter: url(#Line_7);
      }

      .cls-6 {
        filter: url(#Line_6);
      }

      .cls-7 {
        filter: url(#Path_1);
      }

      .cls-8 {
        filter: url(#Ellipse_2);
      }

      .cls-9 {
        filter: url(#Path_2);
      }
    </style>
    <filter id="Path_2" x="31.312" y="791.027" width="108.06" height="108.06" filterUnits="userSpaceOnUse">
      <feOffset dy="3" input="SourceAlpha"/>
      <feGaussianBlur stdDeviation="3" result="blur"/>
      <feFlood flood-opacity="0.161"/>
      <feComposite operator="in" in2="blur"/>
      <feComposite in="SourceGraphic"/>
    </filter>
    <filter id="Ellipse_2" x="133.769" y="755.244" width="159.055" height="148.575" filterUnits="userSpaceOnUse">
      <feOffset dy="3" input="SourceAlpha"/>
      <feGaussianBlur stdDeviation="3" result="blur-2"/>
      <feFlood flood-opacity="0.161"/>
      <feComposite operator="in" in2="blur-2"/>
      <feComposite in="SourceGraphic"/>
    </filter>
    <filter id="Path_1" x="88.622" y="732.547" width="113.908" height="113.908" filterUnits="userSpaceOnUse">
      <feOffset dy="3" input="SourceAlpha"/>
      <feGaussianBlur stdDeviation="3" result="blur-3"/>
      <feFlood flood-opacity="0.161"/>
      <feComposite operator="in" in2="blur-3"/>
      <feComposite in="SourceGraphic"/>
    </filter>
    <filter id="Line_6" x="66.5" y="833" width="187" height="23" filterUnits="userSpaceOnUse">
      <feOffset dy="3" input="SourceAlpha"/>
      <feGaussianBlur stdDeviation="3" result="blur-4"/>
      <feFlood flood-opacity="0.161"/>
      <feComposite operator="in" in2="blur-4"/>
      <feComposite in="SourceGraphic"/>
    </filter>
    <filter id="Line_7" x="66.5" y="845" width="187" height="23" filterUnits="userSpaceOnUse">
      <feOffset dy="3" input="SourceAlpha"/>
      <feGaussianBlur stdDeviation="3" result="blur-5"/>
      <feFlood flood-opacity="0.161"/>
      <feComposite operator="in" in2="blur-5"/>
      <feComposite in="SourceGraphic"/>
    </filter>
    <filter id="Line_8" x="66.5" y="857" width="187" height="23" filterUnits="userSpaceOnUse">
      <feOffset dy="3" input="SourceAlpha"/>
      <feGaussianBlur stdDeviation="3" result="blur-6"/>
      <feFlood flood-opacity="0.161"/>
      <feComposite operator="in" in2="blur-6"/>
      <feComposite in="SourceGraphic"/>
    </filter>
  </defs>
  <g id="Group_4" data-name="Group 4" transform="translate(3)">
    <g id="cloudy" transform="translate(37.312 738.547)">
      <g class="cls-9" transform="matrix(1, 0, 0, 1, -40.31, -738.55)">
        <path id="Path_2-2" data-name="Path 2" class="cls-1" d="M45.03,0A45.03,45.03,0,1,1,0,45.03,45.03,45.03,0,0,1,45.03,0Z" transform="translate(40.31 797.03)"/>
      </g>
      <g class="cls-8" transform="matrix(1, 0, 0, 1, -40.31, -738.55)">
        <ellipse id="Ellipse_2-2" data-name="Ellipse 2" class="cls-1" cx="68.373" cy="62.94" rx="68.373" ry="62.94" transform="matrix(1, -0.03, 0.03, 1, 142.77, 766.02)"/>
      </g>
      <g class="cls-7" transform="matrix(1, 0, 0, 1, -40.31, -738.55)">
        <path id="Path_1-2" data-name="Path 1" class="cls-2" d="M47.954,0A47.954,47.954,0,1,1,0,47.954,47.954,47.954,0,0,1,47.954,0Z" transform="translate(97.62 738.55)"/>
      </g>
    </g>
    <g class="cls-6" transform="matrix(1, 0, 0, 1, -3, 0)">
      <line id="Line_6-2" data-name="Line 6" class="cls-3" x2="169" transform="translate(75.5 841.5)"/>
    </g>
    <g class="cls-5" transform="matrix(1, 0, 0, 1, -3, 0)">
      <line id="Line_7-2" data-name="Line 7" class="cls-3" x2="169" transform="translate(75.5 853.5)"/>
    </g>
    <g class="cls-4" transform="matrix(1, 0, 0, 1, -3, 0)">
      <line id="Line_8-2" data-name="Line 8" class="cls-3" x2="169" transform="translate(75.5 865.5)"/>
    </g>
  </g>
</svg>
