<svg id="Group_11" data-name="Group 11" xmlns="http://www.w3.org/2000/svg" xmlns:xlink="http://www.w3.org/1999/xlink" viewBox="762.802 25.547 227.36 306.127">
  <defs>
    <style>
      .cls-1 {
        fill: #7a89a1;
      }

      .cls-2 {
        fill: #bfc9d9;
      }

      .cls-2, .cls-3, .cls-4 {
        opacity: 0.8;
      }

      .cls-3 {
        fill: #cbd3e0;
      }

      .cls-4 {
        fill: #c9d1de;
      }

      .cls-5 {
        fill: #ebebeb;
      }

      .cls-6 {
        filter: url(#Ellipse_31);
      }

      .cls-7 {
        filter: url(#Ellipse_20-2);
      }

      .cls-8 {
        filter: url(#Ellipse_19-2);
      }

      .cls-9 {
        filter: url(#Ellipse_18-2);
      }

      .cls-10 {
        filter: url(#Ellipse_34);
      }

      .cls-11 {
        filter: url(#Ellipse_17-2);
      }

      .cls-12 {
        filter: url(#Ellipse_36);
      }

      .cls-13 {
        filter: url(#Ellipse_16-2);
      }

      .cls-14 {
        filter: url(#Ellipse_32);
      }

      .cls-15 {
        filter: url(#Ellipse_15-2);
      }

      .cls-16 {
        filter: url(#Ellipse_13-2);
      }

      .cls-17 {
        filter: url(#Ellipse_35);
      }

      .cls-18 {
        filter: url(#Ellipse_12-2);
      }

      .cls-19 {
        filter: url(#Ellipse_30);
      }

      .cls-20 {
        filter: url(#Ellipse_29);
      }

      .cls-21 {
        filter: url(#Ellipse_28);
      }

      .cls-22 {
        filter: url(#Ellipse_27);
      }

      .cls-23 {
        filter: url(#Ellipse_33);
      }

      .cls-24 {
        filter: url(#Ellipse_11-2);
      }

      .cls-25 {
        filter: url(#Ellipse_10-2);
      }

      .cls-26 {
        filter: url(#Ellipse_9-2);
      }

      .cls-27 {
        filter: url(#Ellipse_8-2);
      }

      .cls-28 {
        filter: url(#Ellipse_7-2);
      }

      .cls-29 {
        filter: url(#Ellipse_6-2);
      }

      .cls-30 {
        filter: url(#Ellipse_5-2);
      }

      .cls-31 {
        filter: url(#Ellipse_19);
      }

      .cls-32 {
        filter: url(#Ellipse_17);
      }

      .cls-33 {
        filter: url(#Ellipse_16);
      }

      .cls-34 {
        filter: url(#Ellipse_13);
      }

      .cls-35 {
        filter: url(#Ellipse_12);
      }

      .cls-36 {
        filter: url(#Ellipse_11);
      }

      .cls-37 {
        filter: url(#Ellipse_10);
      }

      .cls-38 {
        filter: url(#Ellipse_9);
      }

      .cls-39 {
        filter: url(#Ellipse_8);
      }

      .cls-40 {
        filter: url(#Ellipse_7);
      }

      .cls-41 {
        filter: url(#Ellipse_6);
      }

      .cls-42 {
        filter: url(#Ellipse_5);
      }

      .cls-43 {
        filter: url(#Path_3);
      }

      .cls-44 {
        filter: url(#Path_4);
      }

      .cls-45 {
        filter: url(#Path_5);
      }

      .cls-46 {
        filter: url(#Ellipse_2);
      }

      .cls-47 {
        filter: url(#Ellipse_20);
      }

      .cls-48 {
        filter: url(#Ellipse_18);
      }

      .cls-49 {
        filter: url(#Ellipse_15);
      }
    </style>
    <filter id="Ellipse_15" x="825.961" y="250.112" width="21.509" height="21.509" filterUnits="userSpaceOnUse">
      <feOffset dy="3" input="SourceAlpha"/>
      <feGaussianBlur stdDeviation="3" result="blur"/>
      <feFlood flood-opacity="0.161"/>
      <feComposite operator="in" in2="blur"/>
      <feComposite in="SourceGraphic"/>
    </filter>
    <filter id="Ellipse_18" x="899.646" y="257.13" width="21.509" height="21.509" filterUnits="userSpaceOnUse">
      <feOffset dy="3" input="SourceAlpha"/>
      <feGaussianBlur stdDeviation="3" result="blur-2"/>
      <feFlood flood-opacity="0.161"/>
      <feComposite operator="in" in2="blur-2"/>
      <feComposite in="SourceGraphic"/>
    </filter>
    <filter id="Ellipse_20" x="858.71" y="268.826" width="23.848" height="23.848" filterUnits="userSpaceOnUse">
      <feOffset dy="3" input="SourceAlpha"/>
      <feGaussianBlur stdDeviation="3" result="blur-3"/>
      <feFlood flood-opacity="0.161"/>
      <feComposite operator="in" in2="blur-3"/>
      <feComposite in="SourceGraphic"/>
    </filter>
    <filter id="Ellipse_2" x="829.47" y="25.547" width="133.791" height="133.791" filterUnits="userSpaceOnUse">
      <feOffset dy="3" input="SourceAlpha"/>
      <feGaussianBlur stdDeviation="3" result="blur-4"/>
      <feFlood flood-opacity="0.161"/>
      <feComposite operator="in" in2="blur-4"/>
      <feComposite in="SourceGraphic"/>
    </filter>
    <filter id="Path_5" x="762.802" y="86.367" width="84.668" height="84.668" filterUnits="userSpaceOnUse">
      <feOffset dy="3" input="SourceAlpha"/>
      <feGaussianBlur stdDeviation="3" result="blur-5"/>
      <feFlood flood-opacity="0.161"/>
      <feComposite operator="in" in2="blur-5"/>
      <feComposite in="SourceGraphic"/>
    </filter>
    <filter id="Path_4" x="905.494" y="86.367" width="84.668" height="84.668" filterUnits="userSpaceOnUse">
      <feOffset dy="3" input="SourceAlpha"/>
      <feGaussianBlur stdDeviation="3" result="blur-6"/>
      <feFlood flood-opacity="0.161"/>
      <feComposite operator="in" in2="blur-6"/>
      <feComposite in="SourceGraphic"/>
    </filter>
    <filter id="Path_3" x="787.364" y="44.261" width="102.212" height="102.212" filterUnits="userSpaceOnUse">
      <feOffset dy="3" input="SourceAlpha"/>
      <feGaussianBlur stdDeviation="3" result="blur-7"/>
      <feFlood flood-opacity="0.161"/>
      <feComposite operator="in" in2="blur-7"/>
      <feComposite in="SourceGraphic"/>
    </filter>
    <filter id="Ellipse_5" x="935.904" y="169.409" width="27.357" height="27.357" filterUnits="userSpaceOnUse">
      <feOffset dy="3" input="SourceAlpha"/>
      <feGaussianBlur stdDeviation="3" result="blur-8"/>
      <feFlood flood-opacity="0.161"/>
      <feComposite operator="in" in2="blur-8"/>
      <feComposite in="SourceGraphic"/>
    </filter>
    <filter id="Ellipse_6" x="953.448" y="193.971" width="26.187" height="26.187" filterUnits="userSpaceOnUse">
      <feOffset dy="3" input="SourceAlpha"/>
      <feGaussianBlur stdDeviation="3" result="blur-9"/>
      <feFlood flood-opacity="0.161"/>
      <feComposite operator="in" in2="blur-9"/>
      <feComposite in="SourceGraphic"/>
    </filter>
    <filter id="Ellipse_7" x="926.547" y="203.328" width="25.018" height="25.018" filterUnits="userSpaceOnUse">
      <feOffset dy="3" input="SourceAlpha"/>
      <feGaussianBlur stdDeviation="3" result="blur-10"/>
      <feFlood flood-opacity="0.161"/>
      <feComposite operator="in" in2="blur-10"/>
      <feComposite in="SourceGraphic"/>
    </filter>
    <filter id="Ellipse_8" x="933.565" y="230.229" width="29.696" height="29.696" filterUnits="userSpaceOnUse">
      <feOffset dy="3" input="SourceAlpha"/>
      <feGaussianBlur stdDeviation="3" result="blur-11"/>
      <feFlood flood-opacity="0.161"/>
      <feComposite operator="in" in2="blur-11"/>
      <feComposite in="SourceGraphic"/>
    </filter>
    <filter id="Ellipse_9" x="831.809" y="141.338" width="27.357" height="27.357" filterUnits="userSpaceOnUse">
      <feOffset dy="3" input="SourceAlpha"/>
      <feGaussianBlur stdDeviation="3" result="blur-12"/>
      <feFlood flood-opacity="0.161"/>
      <feComposite operator="in" in2="blur-12"/>
      <feComposite in="SourceGraphic"/>
    </filter>
    <filter id="Ellipse_10" x="871.576" y="150.695" width="25.018" height="25.018" filterUnits="userSpaceOnUse">
      <feOffset dy="3" input="SourceAlpha"/>
      <feGaussianBlur stdDeviation="3" result="blur-13"/>
      <feFlood flood-opacity="0.161"/>
      <feComposite operator="in" in2="blur-13"/>
      <feComposite in="SourceGraphic"/>
    </filter>
    <filter id="Ellipse_11" x="876.254" y="230.229" width="29.696" height="29.696" filterUnits="userSpaceOnUse">
      <feOffset dy="3" input="SourceAlpha"/>
      <feGaussianBlur stdDeviation="3" result="blur-14"/>
      <feFlood flood-opacity="0.161"/>
      <feComposite operator="in" in2="blur-14"/>
      <feComposite in="SourceGraphic"/>
    </filter>
    <filter id="Ellipse_12" x="821.282" y="231.398" width="26.187" height="26.187" filterUnits="userSpaceOnUse">
      <feOffset dy="3" input="SourceAlpha"/>
      <feGaussianBlur stdDeviation="3" result="blur-15"/>
      <feFlood flood-opacity="0.161"/>
      <feComposite operator="in" in2="blur-15"/>
      <feComposite in="SourceGraphic"/>
    </filter>
    <filter id="Ellipse_13" x="774.498" y="157.713" width="23.848" height="23.848" filterUnits="userSpaceOnUse">
      <feOffset dy="3" input="SourceAlpha"/>
      <feGaussianBlur stdDeviation="3" result="blur-16"/>
      <feFlood flood-opacity="0.161"/>
      <feComposite operator="in" in2="blur-16"/>
      <feComposite in="SourceGraphic"/>
    </filter>
    <filter id="Ellipse_16" x="787.364" y="230.229" width="29.696" height="29.696" filterUnits="userSpaceOnUse">
      <feOffset dy="3" input="SourceAlpha"/>
      <feGaussianBlur stdDeviation="3" result="blur-17"/>
      <feFlood flood-opacity="0.161"/>
      <feComposite operator="in" in2="blur-17"/>
      <feComposite in="SourceGraphic"/>
    </filter>
    <filter id="Ellipse_17" x="850.523" y="236.077" width="23.848" height="23.848" filterUnits="userSpaceOnUse">
      <feOffset dy="3" input="SourceAlpha"/>
      <feGaussianBlur stdDeviation="3" result="blur-18"/>
      <feFlood flood-opacity="0.161"/>
      <feComposite operator="in" in2="blur-18"/>
      <feComposite in="SourceGraphic"/>
    </filter>
    <filter id="Ellipse_19" x="899.646" y="232.568" width="23.848" height="23.848" filterUnits="userSpaceOnUse">
      <feOffset dy="3" input="SourceAlpha"/>
      <feGaussianBlur stdDeviation="3" result="blur-19"/>
      <feFlood flood-opacity="0.161"/>
      <feComposite operator="in" in2="blur-19"/>
      <feComposite in="SourceGraphic"/>
    </filter>
    <filter id="Ellipse_5-2" x="938.904" y="208.409" width="27.357" height="27.357" filterUnits="userSpaceOnUse">
      <feOffset dy="3" input="SourceAlpha"/>
      <feGaussianBlur stdDeviation="3" result="blur-20"/>
      <feFlood flood-opacity="0.161"/>
      <feComposite operator="in" in2="blur-20"/>
      <feComposite in="SourceGraphic"/>
    </filter>
    <filter id="Ellipse_6-2" x="956.448" y="232.971" width="26.187" height="26.187" filterUnits="userSpaceOnUse">
      <feOffset dy="3" input="SourceAlpha"/>
      <feGaussianBlur stdDeviation="3" result="blur-21"/>
      <feFlood flood-opacity="0.161"/>
      <feComposite operator="in" in2="blur-21"/>
      <feComposite in="SourceGraphic"/>
    </filter>
    <filter id="Ellipse_7-2" x="929.547" y="242.328" width="25.018" height="25.018" filterUnits="userSpaceOnUse">
      <feOffset dy="3" input="SourceAlpha"/>
      <feGaussianBlur stdDeviation="3" result="blur-22"/>
      <feFlood flood-opacity="0.161"/>
      <feComposite operator="in" in2="blur-22"/>
      <feComposite in="SourceGraphic"/>
    </filter>
    <filter id="Ellipse_8-2" x="936.565" y="269.229" width="29.696" height="29.696" filterUnits="userSpaceOnUse">
      <feOffset dy="3" input="SourceAlpha"/>
      <feGaussianBlur stdDeviation="3" result="blur-23"/>
      <feFlood flood-opacity="0.161"/>
      <feComposite operator="in" in2="blur-23"/>
      <feComposite in="SourceGraphic"/>
    </filter>
    <filter id="Ellipse_9-2" x="834.809" y="180.338" width="27.357" height="27.357" filterUnits="userSpaceOnUse">
      <feOffset dy="3" input="SourceAlpha"/>
      <feGaussianBlur stdDeviation="3" result="blur-24"/>
      <feFlood flood-opacity="0.161"/>
      <feComposite operator="in" in2="blur-24"/>
      <feComposite in="SourceGraphic"/>
    </filter>
    <filter id="Ellipse_10-2" x="874.576" y="189.695" width="25.018" height="25.018" filterUnits="userSpaceOnUse">
      <feOffset dy="3" input="SourceAlpha"/>
      <feGaussianBlur stdDeviation="3" result="blur-25"/>
      <feFlood flood-opacity="0.161"/>
      <feComposite operator="in" in2="blur-25"/>
      <feComposite in="SourceGraphic"/>
    </filter>
    <filter id="Ellipse_11-2" x="879.254" y="269.229" width="29.696" height="29.696" filterUnits="userSpaceOnUse">
      <feOffset dy="3" input="SourceAlpha"/>
      <feGaussianBlur stdDeviation="3" result="blur-26"/>
      <feFlood flood-opacity="0.161"/>
      <feComposite operator="in" in2="blur-26"/>
      <feComposite in="SourceGraphic"/>
    </filter>
    <filter id="Ellipse_33" x="898.254" y="216.229" width="29.696" height="29.696" filterUnits="userSpaceOnUse">
      <feOffset dy="3" input="SourceAlpha"/>
      <feGaussianBlur stdDeviation="3" result="blur-27"/>
      <feFlood flood-opacity="0.161"/>
      <feComposite operator="in" in2="blur-27"/>
      <feComposite in="SourceGraphic"/>
    </filter>
    <filter id="Ellipse_27" x="889.254" y="152.229" width="42.696" height="42.696" filterUnits="userSpaceOnUse">
      <feOffset dy="3" input="SourceAlpha"/>
      <feGaussianBlur stdDeviation="3" result="blur-28"/>
      <feFlood flood-opacity="0.161"/>
      <feComposite operator="in" in2="blur-28"/>
      <feComposite in="SourceGraphic"/>
    </filter>
    <filter id="Ellipse_28" x="796.254" y="180.229" width="42.696" height="42.696" filterUnits="userSpaceOnUse">
      <feOffset dy="3" input="SourceAlpha"/>
      <feGaussianBlur stdDeviation="3" result="blur-29"/>
      <feFlood flood-opacity="0.161"/>
      <feComposite operator="in" in2="blur-29"/>
      <feComposite in="SourceGraphic"/>
    </filter>
    <filter id="Ellipse_29" x="810.254" y="143.229" width="35.696" height="35.696" filterUnits="userSpaceOnUse">
      <feOffset dy="3" input="SourceAlpha"/>
      <feGaussianBlur stdDeviation="3" result="blur-30"/>
      <feFlood flood-opacity="0.161"/>
      <feComposite operator="in" in2="blur-30"/>
      <feComposite in="SourceGraphic"/>
    </filter>
    <filter id="Ellipse_30" x="934.254" y="166.229" width="35.696" height="35.696" filterUnits="userSpaceOnUse">
      <feOffset dy="3" input="SourceAlpha"/>
      <feGaussianBlur stdDeviation="3" result="blur-31"/>
      <feFlood flood-opacity="0.161"/>
      <feComposite operator="in" in2="blur-31"/>
      <feComposite in="SourceGraphic"/>
    </filter>
    <filter id="Ellipse_12-2" x="824.282" y="270.398" width="26.187" height="26.187" filterUnits="userSpaceOnUse">
      <feOffset dy="3" input="SourceAlpha"/>
      <feGaussianBlur stdDeviation="3" result="blur-32"/>
      <feFlood flood-opacity="0.161"/>
      <feComposite operator="in" in2="blur-32"/>
      <feComposite in="SourceGraphic"/>
    </filter>
    <filter id="Ellipse_35" x="843.282" y="217.398" width="26.187" height="26.187" filterUnits="userSpaceOnUse">
      <feOffset dy="3" input="SourceAlpha"/>
      <feGaussianBlur stdDeviation="3" result="blur-33"/>
      <feFlood flood-opacity="0.161"/>
      <feComposite operator="in" in2="blur-33"/>
      <feComposite in="SourceGraphic"/>
    </filter>
    <filter id="Ellipse_13-2" x="777.498" y="196.713" width="23.848" height="23.848" filterUnits="userSpaceOnUse">
      <feOffset dy="3" input="SourceAlpha"/>
      <feGaussianBlur stdDeviation="3" result="blur-34"/>
      <feFlood flood-opacity="0.161"/>
      <feComposite operator="in" in2="blur-34"/>
      <feComposite in="SourceGraphic"/>
    </filter>
    <filter id="Ellipse_15-2" x="828.961" y="289.112" width="21.509" height="21.509" filterUnits="userSpaceOnUse">
      <feOffset dy="3" input="SourceAlpha"/>
      <feGaussianBlur stdDeviation="3" result="blur-35"/>
      <feFlood flood-opacity="0.161"/>
      <feComposite operator="in" in2="blur-35"/>
      <feComposite in="SourceGraphic"/>
    </filter>
    <filter id="Ellipse_32" x="847.961" y="236.112" width="21.509" height="21.509" filterUnits="userSpaceOnUse">
      <feOffset dy="3" input="SourceAlpha"/>
      <feGaussianBlur stdDeviation="3" result="blur-36"/>
      <feFlood flood-opacity="0.161"/>
      <feComposite operator="in" in2="blur-36"/>
      <feComposite in="SourceGraphic"/>
    </filter>
    <filter id="Ellipse_16-2" x="790.364" y="269.229" width="29.696" height="29.696" filterUnits="userSpaceOnUse">
      <feOffset dy="3" input="SourceAlpha"/>
      <feGaussianBlur stdDeviation="3" result="blur-37"/>
      <feFlood flood-opacity="0.161"/>
      <feComposite operator="in" in2="blur-37"/>
      <feComposite in="SourceGraphic"/>
    </filter>
    <filter id="Ellipse_36" x="809.364" y="216.229" width="29.696" height="29.696" filterUnits="userSpaceOnUse">
      <feOffset dy="3" input="SourceAlpha"/>
      <feGaussianBlur stdDeviation="3" result="blur-38"/>
      <feFlood flood-opacity="0.161"/>
      <feComposite operator="in" in2="blur-38"/>
      <feComposite in="SourceGraphic"/>
    </filter>
    <filter id="Ellipse_17-2" x="853.523" y="275.077" width="23.848" height="23.848" filterUnits="userSpaceOnUse">
      <feOffset dy="3" input="SourceAlpha"/>
      <feGaussianBlur stdDeviation="3" result="blur-39"/>
      <feFlood flood-opacity="0.161"/>
      <feComposite operator="in" in2="blur-39"/>
      <feComposite in="SourceGraphic"/>
    </filter>
    <filter id="Ellipse_34" x="872.523" y="222.077" width="23.848" height="23.848" filterUnits="userSpaceOnUse">
      <feOffset dy="3" input="SourceAlpha"/>
      <feGaussianBlur stdDeviation="3" result="blur-40"/>
      <feFlood flood-opacity="0.161"/>
      <feComposite operator="in" in2="blur-40"/>
      <feComposite in="SourceGraphic"/>
    </filter>
    <filter id="Ellipse_18-2" x="902.646" y="296.13" width="21.509" height="21.509" filterUnits="userSpaceOnUse">
      <feOffset dy="3" input="SourceAlpha"/>
      <feGaussianBlur stdDeviation="3" result="blur-41"/>
      <feFlood flood-opacity="0.161"/>
      <feComposite operator="in" in2="blur-41"/>
      <feComposite in="SourceGraphic"/>
    </filter>
    <filter id="Ellipse_19-2" x="902.646" y="271.568" width="23.848" height="23.848" filterUnits="userSpaceOnUse">
      <feOffset dy="3" input="SourceAlpha"/>
      <feGaussianBlur stdDeviation="3" result="blur-42"/>
      <feFlood flood-opacity="0.161"/>
      <feComposite operator="in" in2="blur-42"/>
      <feComposite in="SourceGraphic"/>
    </filter>
    <filter id="Ellipse_20-2" x="861.71" y="307.826" width="23.848" height="23.848" filterUnits="userSpaceOnUse">
      <feOffset dy="3" input="SourceAlpha"/>
      <feGaussianBlur stdDeviation="3" result="blur-43"/>
      <feFlood flood-opacity="0.161"/>
      <feComposite operator="in" in2="blur-43"/>
      <feComposite in="SourceGraphic"/>
    </filter>
    <filter id="Ellipse_31" x="880.71" y="254.826" width="23.848" height="23.848" filterUnits="userSpaceOnUse">
      <feOffset dy="3" input="SourceAlpha"/>
      <feGaussianBlur stdDeviation="3" result="blur-44"/>
      <feFlood flood-opacity="0.161"/>
      <feComposite operator="in" in2="blur-44"/>
      <feComposite in="SourceGraphic"/>
    </filter>
  </defs>
  <g class="cls-49" transform="matrix(1, 0, 0, 1, 0, 0)">
    <ellipse id="Ellipse_15-3" data-name="Ellipse 15" class="cls-1" cx="1.754" cy="1.754" rx="1.754" ry="1.754" transform="translate(834.96 256.11)"/>
  </g>
  <g class="cls-48" transform="matrix(1, 0, 0, 1, 0, 0)">
    <ellipse id="Ellipse_18-3" data-name="Ellipse 18" class="cls-1" cx="1.754" cy="1.754" rx="1.754" ry="1.754" transform="translate(908.65 263.13)"/>
  </g>
  <g class="cls-47" transform="matrix(1, 0, 0, 1, 0, 0)">
    <ellipse id="Ellipse_20-3" data-name="Ellipse 20" class="cls-1" cx="2.924" cy="2.924" rx="2.924" ry="2.924" transform="translate(867.71 274.83)"/>
  </g>
  <g id="Group_6" data-name="Group 6" transform="translate(3)">
    <g class="cls-46" transform="matrix(1, 0, 0, 1, -3, 0)">
      <ellipse id="Ellipse_2-2" data-name="Ellipse 2" class="cls-2" cx="57.896" cy="57.896" rx="57.896" ry="57.896" transform="translate(838.47 31.55)"/>
    </g>
    <g class="cls-45" transform="matrix(1, 0, 0, 1, -3, 0)">
      <path id="Path_5-2" data-name="Path 5" class="cls-3" d="M33.334,0A33.334,33.334,0,1,1,0,33.334,33.334,33.334,0,0,1,33.334,0Z" transform="translate(771.8 92.37)"/>
    </g>
    <g class="cls-44" transform="matrix(1, 0, 0, 1, -3, 0)">
      <path id="Path_4-2" data-name="Path 4" class="cls-4" d="M33.334,0A33.334,33.334,0,1,1,0,33.334,33.334,33.334,0,0,1,33.334,0Z" transform="translate(914.49 92.37)"/>
    </g>
    <g class="cls-43" transform="matrix(1, 0, 0, 1, -3, 0)">
      <path id="Path_3-2" data-name="Path 3" class="cls-3" d="M42.106,0A42.106,42.106,0,1,1,0,42.106,42.106,42.106,0,0,1,42.106,0Z" transform="translate(796.36 50.26)"/>
    </g>
    <g class="cls-42" transform="matrix(1, 0, 0, 1, -3, 0)">
      <ellipse id="Ellipse_5-3" data-name="Ellipse 5" class="cls-1" cx="4.678" cy="4.678" rx="4.678" ry="4.678" transform="translate(944.9 175.41)"/>
    </g>
    <g class="cls-41" transform="matrix(1, 0, 0, 1, -3, 0)">
      <ellipse id="Ellipse_6-3" data-name="Ellipse 6" class="cls-1" cx="4.094" cy="4.094" rx="4.094" ry="4.094" transform="translate(962.45 199.97)"/>
    </g>
    <g class="cls-40" transform="matrix(1, 0, 0, 1, -3, 0)">
      <ellipse id="Ellipse_7-3" data-name="Ellipse 7" class="cls-1" cx="3.509" cy="3.509" rx="3.509" ry="3.509" transform="translate(935.55 209.33)"/>
    </g>
    <g class="cls-39" transform="matrix(1, 0, 0, 1, -3, 0)">
      <ellipse id="Ellipse_8-3" data-name="Ellipse 8" class="cls-1" cx="5.848" cy="5.848" rx="5.848" ry="5.848" transform="translate(942.56 236.23)"/>
    </g>
    <g class="cls-38" transform="matrix(1, 0, 0, 1, -3, 0)">
      <ellipse id="Ellipse_9-3" data-name="Ellipse 9" class="cls-1" cx="4.678" cy="4.678" rx="4.678" ry="4.678" transform="translate(840.81 147.34)"/>
    </g>
    <g class="cls-37" transform="matrix(1, 0, 0, 1, -3, 0)">
      <ellipse id="Ellipse_10-3" data-name="Ellipse 10" class="cls-1" cx="3.509" cy="3.509" rx="3.509" ry="3.509" transform="translate(880.58 156.7)"/>
    </g>
    <g class="cls-36" transform="matrix(1, 0, 0, 1, -3, 0)">
      <ellipse id="Ellipse_11-3" data-name="Ellipse 11" class="cls-1" cx="5.848" cy="5.848" rx="5.848" ry="5.848" transform="translate(885.25 236.23)"/>
    </g>
    <g class="cls-35" transform="matrix(1, 0, 0, 1, -3, 0)">
      <ellipse id="Ellipse_12-3" data-name="Ellipse 12" class="cls-1" cx="4.094" cy="4.094" rx="4.094" ry="4.094" transform="translate(830.28 237.4)"/>
    </g>
    <g class="cls-34" transform="matrix(1, 0, 0, 1, -3, 0)">
      <ellipse id="Ellipse_13-3" data-name="Ellipse 13" class="cls-1" cx="2.924" cy="2.924" rx="2.924" ry="2.924" transform="translate(783.5 163.71)"/>
    </g>
    <g class="cls-33" transform="matrix(1, 0, 0, 1, -3, 0)">
      <ellipse id="Ellipse_16-3" data-name="Ellipse 16" class="cls-1" cx="5.848" cy="5.848" rx="5.848" ry="5.848" transform="translate(796.36 236.23)"/>
    </g>
    <g class="cls-32" transform="matrix(1, 0, 0, 1, -3, 0)">
      <ellipse id="Ellipse_17-3" data-name="Ellipse 17" class="cls-1" cx="2.924" cy="2.924" rx="2.924" ry="2.924" transform="translate(859.52 242.08)"/>
    </g>
    <g class="cls-31" transform="matrix(1, 0, 0, 1, -3, 0)">
      <ellipse id="Ellipse_19-3" data-name="Ellipse 19" class="cls-1" cx="2.924" cy="2.924" rx="2.924" ry="2.924" transform="translate(908.65 238.57)"/>
    </g>
    <g id="Group_5" data-name="Group 5" transform="translate(76 -656)">
      <g class="cls-30" transform="matrix(1, 0, 0, 1, -79, 656)">
        <ellipse id="Ellipse_5-4" data-name="Ellipse 5" class="cls-5" cx="4.678" cy="4.678" rx="4.678" ry="4.678" transform="translate(947.9 214.41)"/>
      </g>
      <g class="cls-29" transform="matrix(1, 0, 0, 1, -79, 656)">
        <ellipse id="Ellipse_6-4" data-name="Ellipse 6" class="cls-5" cx="4.094" cy="4.094" rx="4.094" ry="4.094" transform="translate(965.45 238.97)"/>
      </g>
      <g class="cls-28" transform="matrix(1, 0, 0, 1, -79, 656)">
        <ellipse id="Ellipse_7-4" data-name="Ellipse 7" class="cls-5" cx="3.509" cy="3.509" rx="3.509" ry="3.509" transform="translate(938.55 248.33)"/>
      </g>
      <g class="cls-27" transform="matrix(1, 0, 0, 1, -79, 656)">
        <ellipse id="Ellipse_8-4" data-name="Ellipse 8" class="cls-5" cx="5.848" cy="5.848" rx="5.848" ry="5.848" transform="translate(945.56 275.23)"/>
      </g>
      <g class="cls-26" transform="matrix(1, 0, 0, 1, -79, 656)">
        <ellipse id="Ellipse_9-4" data-name="Ellipse 9" class="cls-5" cx="4.678" cy="4.678" rx="4.678" ry="4.678" transform="translate(843.81 186.34)"/>
      </g>
      <g class="cls-25" transform="matrix(1, 0, 0, 1, -79, 656)">
        <ellipse id="Ellipse_10-4" data-name="Ellipse 10" class="cls-5" cx="3.509" cy="3.509" rx="3.509" ry="3.509" transform="translate(883.58 195.7)"/>
      </g>
      <g class="cls-24" transform="matrix(1, 0, 0, 1, -79, 656)">
        <ellipse id="Ellipse_11-4" data-name="Ellipse 11" class="cls-5" cx="5.848" cy="5.848" rx="5.848" ry="5.848" transform="translate(888.25 275.23)"/>
      </g>
      <g class="cls-23" transform="matrix(1, 0, 0, 1, -79, 656)">
        <ellipse id="Ellipse_33-2" data-name="Ellipse 33" class="cls-5" cx="5.848" cy="5.848" rx="5.848" ry="5.848" transform="translate(907.25 222.23)"/>
      </g>
      <g class="cls-22" transform="matrix(1, 0, 0, 1, -79, 656)">
        <ellipse id="Ellipse_27-2" data-name="Ellipse 27" class="cls-5" cx="12.348" cy="12.348" rx="12.348" ry="12.348" transform="translate(898.25 158.23)"/>
      </g>
      <g class="cls-21" transform="matrix(1, 0, 0, 1, -79, 656)">
        <ellipse id="Ellipse_28-2" data-name="Ellipse 28" class="cls-5" cx="12.348" cy="12.348" rx="12.348" ry="12.348" transform="translate(805.25 186.23)"/>
      </g>
      <g class="cls-20" transform="matrix(1, 0, 0, 1, -79, 656)">
        <ellipse id="Ellipse_29-2" data-name="Ellipse 29" class="cls-5" cx="8.848" cy="8.848" rx="8.848" ry="8.848" transform="translate(819.25 149.23)"/>
      </g>
      <g class="cls-19" transform="matrix(1, 0, 0, 1, -79, 656)">
        <ellipse id="Ellipse_30-2" data-name="Ellipse 30" class="cls-5" cx="8.848" cy="8.848" rx="8.848" ry="8.848" transform="translate(943.25 172.23)"/>
      </g>
      <g class="cls-18" transform="matrix(1, 0, 0, 1, -79, 656)">
        <ellipse id="Ellipse_12-4" data-name="Ellipse 12" class="cls-5" cx="4.094" cy="4.094" rx="4.094" ry="4.094" transform="translate(833.28 276.4)"/>
      </g>
      <g class="cls-17" transform="matrix(1, 0, 0, 1, -79, 656)">
        <ellipse id="Ellipse_35-2" data-name="Ellipse 35" class="cls-5" cx="4.094" cy="4.094" rx="4.094" ry="4.094" transform="translate(852.28 223.4)"/>
      </g>
      <g class="cls-16" transform="matrix(1, 0, 0, 1, -79, 656)">
        <ellipse id="Ellipse_13-4" data-name="Ellipse 13" class="cls-5" cx="2.924" cy="2.924" rx="2.924" ry="2.924" transform="translate(786.5 202.71)"/>
      </g>
      <g class="cls-15" transform="matrix(1, 0, 0, 1, -79, 656)">
        <ellipse id="Ellipse_15-4" data-name="Ellipse 15" class="cls-5" cx="1.754" cy="1.754" rx="1.754" ry="1.754" transform="translate(837.96 295.11)"/>
      </g>
      <g class="cls-14" transform="matrix(1, 0, 0, 1, -79, 656)">
        <ellipse id="Ellipse_32-2" data-name="Ellipse 32" class="cls-5" cx="1.754" cy="1.754" rx="1.754" ry="1.754" transform="translate(856.96 242.11)"/>
      </g>
      <g class="cls-13" transform="matrix(1, 0, 0, 1, -79, 656)">
        <ellipse id="Ellipse_16-4" data-name="Ellipse 16" class="cls-5" cx="5.848" cy="5.848" rx="5.848" ry="5.848" transform="translate(799.36 275.23)"/>
      </g>
      <g class="cls-12" transform="matrix(1, 0, 0, 1, -79, 656)">
        <ellipse id="Ellipse_36-2" data-name="Ellipse 36" class="cls-5" cx="5.848" cy="5.848" rx="5.848" ry="5.848" transform="translate(818.36 222.23)"/>
      </g>
      <g class="cls-11" transform="matrix(1, 0, 0, 1, -79, 656)">
        <ellipse id="Ellipse_17-4" data-name="Ellipse 17" class="cls-5" cx="2.924" cy="2.924" rx="2.924" ry="2.924" transform="translate(862.52 281.08)"/>
      </g>
      <g class="cls-10" transform="matrix(1, 0, 0, 1, -79, 656)">
        <ellipse id="Ellipse_34-2" data-name="Ellipse 34" class="cls-5" cx="2.924" cy="2.924" rx="2.924" ry="2.924" transform="translate(881.52 228.08)"/>
      </g>
      <g class="cls-9" transform="matrix(1, 0, 0, 1, -79, 656)">
        <ellipse id="Ellipse_18-4" data-name="Ellipse 18" class="cls-5" cx="1.754" cy="1.754" rx="1.754" ry="1.754" transform="translate(911.65 302.13)"/>
      </g>
      <g class="cls-8" transform="matrix(1, 0, 0, 1, -79, 656)">
        <ellipse id="Ellipse_19-4" data-name="Ellipse 19" class="cls-5" cx="2.924" cy="2.924" rx="2.924" ry="2.924" transform="translate(911.65 277.57)"/>
      </g>
      <g class="cls-7" transform="matrix(1, 0, 0, 1, -79, 656)">
        <ellipse id="Ellipse_20-4" data-name="Ellipse 20" class="cls-5" cx="2.924" cy="2.924" rx="2.924" ry="2.924" transform="translate(870.71 313.83)"/>
      </g>
      <g class="cls-6" transform="matrix(1, 0, 0, 1, -79, 656)">
        <ellipse id="Ellipse_31-2" data-name="Ellipse 31" class="cls-5" cx="2.924" cy="2.924" rx="2.924" ry="2.924" transform="translate(889.71 260.83)"/>
      </g>
    </g>
  </g>
</svg>
